<?xml version="1.0" encoding="utf-8"?>
<!-- Generator: Adobe Illustrator 17.0.0, SVG Export Plug-In . SVG Version: 6.00 Build 0)  -->
<!DOCTYPE svg PUBLIC "-//W3C//DTD SVG 1.1//EN" "http://www.w3.org/Graphics/SVG/1.1/DTD/svg11.dtd">
<svg version="1.1" id="logo-nyx" xmlns="http://www.w3.org/2000/svg" xmlns:xlink="http://www.w3.org/1999/xlink" x="0px" y="0px"
	 width="800px" height="800px" viewBox="0 0 800 800" enable-background="new 0 0 800 800" xml:space="preserve">
<path stroke="#394B56" stroke-width="3" fill-opacity="10%" stroke-miterlimit="10" d="M496.194,11.524C250.031-49.567-0.007,139.754-0.007,401.593
	c0,138.497,69.801,260.646,175.98,332.897c-37.068-55.592-83.381-145.038-88.889-250.788
	C81.852,383.27,113.55,267.727,225.272,151.775c-21.625,120.442-68.116,517.377,226.652,648.249
	c196.347-25.587,348.07-194.239,348.07-398.431c0-113.798-47.134-216.561-122.844-289.665
	c66.57,162.887,65.403,523.908-188.587,540.75c-68.48,4.539-124.022-55.833-147.19-131.537
	C293.519,364.769,360.936,112.112,496.194,11.524"/>
</svg>
