<?xml version="1.0" encoding="utf-8"?>
<!-- Generator: Adobe Illustrator 18.0.0, SVG Export Plug-In . SVG Version: 6.00 Build 0)  -->
<!DOCTYPE svg PUBLIC "-//W3C//DTD SVG 1.1//EN" "http://www.w3.org/Graphics/SVG/1.1/DTD/svg11.dtd">
<svg version="1.1" id="Layer_1" xmlns="http://www.w3.org/2000/svg" xmlns:xlink="http://www.w3.org/1999/xlink" x="0px" y="0px"
	 viewBox="16.4 234.8 809.1 124.4" enable-background="new 16.4 234.8 809.1 124.4" xml:space="preserve">
<g>
	<g>
		<path fill="#FFFFFF" d="M16.4,359.6V236.1h111.5c13.3,0,22.7,1.3,28.4,4.4c5.3,2.7,9.3,6.7,11.6,12c1.8,4,2.7,9.3,2.7,16
			c0,10.7-2.7,18.2-8,22.7c-3.1,2.7-8.4,4.4-16.4,5.8c9.8,0.9,16.4,2.7,20.4,5.3c5.8,4,8.9,12,8.9,23.1c0,14.7-4.9,24.4-14.2,29.3
			c-5.3,3.1-14.7,4.4-28,4.4H16.4V359.6z M52.8,285.4h63.1c6.2,0,10.2-0.4,12-1.3c3.1-1.8,4.9-4.4,4.9-9.3c0-5.3-2.2-8.9-6.7-10.2
			c-1.8-0.4-5.8-0.9-11.6-0.9H52.4v21.8h0.4V285.4z M52.8,332.1h67.1c5.8,0,9.8-0.4,11.6-0.9c4-1.3,5.8-4.9,5.8-9.8
			c0-5.3-2.2-8.9-6.2-10.7c-1.8-0.4-5.8-0.9-12-0.9H52.8V332.1z"/>
		<path fill="#FFFFFF" d="M204.8,236.1h136.9v28h-99.5V285h94.2v24.4h-94.2v21.8H343v28H204.8V236.1z"/>
		<path fill="#FFFFFF" d="M371,359.6V236.1h37.8V329h84.9v30.7L371,359.6L371,359.6z"/>
		<path fill="#FFFFFF" d="M513.1,359.6V236.1h37.8V329h84.9v30.7L513.1,359.6L513.1,359.6z"/>
		<path fill="#FFFFFF" d="M737.5,234.8c30.2,0,48.9,0.4,56,1.8c7.1,1.3,12.4,3.1,16.9,6.2c4.4,2.7,7.6,6.7,9.8,11.6
			c2.7,5.8,4.4,12,4.9,19.1c0.4,6.2,0.4,14.7,0.4,25.3c0,15.1-0.9,26.7-3.1,34.2c-4.4,16-16.9,24.9-37.3,26.7
			c-9.3,0.9-24.4,0.9-45.3,0.9c-17.8,0-32-0.4-41.8-0.9c-19.1-0.9-31.1-7.6-36.4-19.6c-2.7-5.8-4-12.4-4.4-19.6
			c-0.4-6.2-0.4-13.8-0.4-22.7c0-15.1,0.4-25.3,1.3-30.7c2.2-12.4,8.4-21.3,17.8-25.8c5.8-2.7,12.4-4.4,20.4-5.3
			C706,235.2,719.3,234.8,737.5,234.8z M740.2,265c-9.3,0-17.3,0-24.4,0.4c-10.2,0.4-16.9,3.6-19.1,9.8c-1.3,4-2.2,11.1-2.2,21.8
			c0,10.7,0.4,17.8,1.8,22.2c1.8,6.7,8,10.2,17.8,10.7c5.8,0.4,12.9,0.4,21.3,0.4c11.1,0,19.1,0,23.5,0c6.7-0.4,11.1-0.9,14.2-1.3
			c3.1-0.4,5.8-1.8,7.6-3.6c3.6-2.7,5.3-8,6.2-16.4c0.4-3.1,0.4-7.6,0.4-13.3c0-10.2-0.4-17.3-1.8-20.9c-0.9-3.1-2.7-5.3-5.8-7.1
			c-2.7-1.3-6.7-2.2-11.6-2.7C762,265.4,752.6,265,740.2,265z"/>
	</g>
</g>
</svg>
