<?xml version="1.0" encoding="utf-8"?>
<!-- Generator: Adobe Illustrator 19.1.0, SVG Export Plug-In . SVG Version: 6.00 Build 0)  -->
<svg version="1.1" id="Layer_1" xmlns="http://www.w3.org/2000/svg" xmlns:xlink="http://www.w3.org/1999/xlink" x="0px" y="0px"
	 viewBox="0 0 285.1 56.7" style="enable-background:new 0 0 285.1 56.7;" xml:space="preserve">
<style type="text/css">
	.st0{fill:#E2E2E2;}
</style>
<g>
	<g>
		<path class="st0" d="M63.2,42.5V14.2H77L87.4,33l10.4-18.8h13.7v28.3H103l0.4-21.9L90.8,42.5h-6.9L71.4,20.6l0.2,21.9H63.2z"/>
		<path class="st0" d="M115.5,42.5l16.1-28.3h11.7l15.6,28.3h-9.5l-2.8-5.1h-18.4l-2.7,5.1H115.5z M131.2,31.6h12.3l-6.2-11.3
			L131.2,31.6z"/>
		<path class="st0" d="M162.8,42.5V14.2h21.9c2.2,0,3.8,0,4.6,0.1c1.8,0.2,3.2,0.5,4.2,1c1,0.5,1.9,1.3,2.5,2.4
			c0.9,1.4,1.3,3.7,1.3,6.8c0,3.1-0.3,5.4-1,6.9c-0.7,1.7-1.9,2.8-3.6,3.4c-1.3,0.5-3.8,0.7-7.4,0.7h-14v7H162.8z M171.5,28.6h12.6
			c1.9,0,3.1-0.3,3.7-0.8c0.6-0.6,0.9-1.4,0.9-2.6c0-1.4-0.2-2.4-0.6-3.1c-0.4-0.5-1-0.9-1.9-1c-0.3-0.1-1-0.1-2-0.1h-12.6V28.6z"/>
		<path class="st0" d="M216.7,42.5v-9.8l-16.3-18.5h11.1l9.6,11.7l9.6-11.7h10.9l-16.1,18.5v9.8H216.7z"/>
		<path class="st0" d="M243.3,42.5l14.2-14.1L244,14.2h11.5l9.2,10.1l9.3-10.1h11.2l-13.5,14.1l14.4,14.3h-11.8l-9.6-10.2L255,42.5
			H243.3z"/>
	</g>
	<g>
		<path class="st0" d="M19.4,29.1c-0.7-7.1-0.6-13.7,0-18.8C17.6,15,16.3,21,15.9,27.7c-0.9,15.6,3.5,28.6,9.9,29
			c0.6,0,1.1,0,1.7-0.2C23.9,52.7,20.6,42,19.4,29.1z"/>
		<path class="st0" d="M29.2,0c-0.6,0-1.1,0-1.7,0.2c3.6,3.7,6.9,14.4,8.1,27.3c0.7,7.1,0.6,13.7,0,18.8c1.9-4.7,3.2-10.8,3.5-17.4
			C40,13.4,35.6,0.4,29.2,0z"/>
		<path class="st0" d="M29.2,0c-0.6,0-1.3-0.1-1.9,0c0.1,0.1,0.2,0.2,0.3,0.3c9.2,1.6,17.9,9.5,21.7,20.8
			c4.1,12.2,1.2,24.6-6.4,31.1C50.3,47.5,55.5,39.4,56,30C56.9,14.4,44.9,1,29.2,0z"/>
		<path class="st0" d="M27.4,56.4c-9.2-1.6-17.9-9.5-21.7-20.8C1.6,23.3,4.5,10.9,12.1,4.4C4.7,9.2-0.5,17.2-1,26.7
			c-0.9,15.6,11.1,29,26.8,30c0.6,0,1.3,0.1,1.9,0C27.6,56.6,27.5,56.5,27.4,56.4z"/>
	</g>
</g>
</svg>
